<svg width="512" height="512" xmlns="http://www.w3.org/2000/svg">
  <path fill="#D62127" d="M7.9 256C7.9 119 119 7.9 256 7.9S504.1 119 504.1 256 393 504.1 256 504.1 7.9 393 7.9 256z" style="fill:#b02d13;fill-opacity:1"/>
  <path fill="#CA842A" d="M210.2 205.6 78.6 183.2l99 70.8zm89.4 0 131.7-22.4-99.1 70.8z" style="fill:#ec8e24;fill-opacity:1"/>
  <path fill="#EDB20F" d="M431.2 183.2s-92.7 54.6-99.1 48.2c-7.1-7.1-69-120.5-77.9-120.5-8.9 0-69.5 113.4-76.6 120.5-6.4 6.4-99.1-48.2-99.1-48.2C66.1 190 144 383.4 144 383.4c0 15.5 12.5 28 28 28h165.7c15.5 0 28-12.5 28-28 0 0 77.9-193.4 65.5-200.2z"/>
  <path fill="#FFC50B" d="M254.2 110.8c-8.9 0-69.5 113.4-76.6 120.5-6.4 6.4-99.1-48.2-99.1-48.2C66.1 190 144 383.4 144 383.4c0 15.5 12.5 28 28 28h82.2V110.8z"/>
  <path fill="#FFC50B" d="M280.4 110.8c0 14.9-12 26.9-26.9 26.9-14.9 0-26.9-12-26.9-26.9 0-14.9 12-26.9 26.9-26.9 14.9 0 26.9 12 26.9 26.9z"/>
  <path fill="#B8972F" d="M366.1 383.4c0 15.5-12.5 28-28 28h-166c-15.5 0-28-12.5-28-28 0 0 64.6-3.8 110.9-3.8 46.2-.1 111.1 3.8 111.1 3.8z" style="fill:#b8822f;fill-opacity:1"/>
  <path fill="#C4A12E" d="M254.2 411.4H172c-15.5 0-28-12.5-28-28 0 0 64.6-3.8 110.9-3.8l-.7 31.8z" style="fill:#c4852e;fill-opacity:1"/>
  <path fill="#F6E568" d="M231.7 116.1c-4.7-4.7.5-17.8 5.2-22.5 4.7-4.7 16.2-9.2 20.9-4.5s-21.3 31.8-26.1 27z" opacity=".4"/>
  <path fill="#FFC50B" d="M449.3 184.5c0 9.8-7.9 17.7-17.7 17.7-9.8 0-17.7-7.9-17.7-17.7 0-9.8 7.9-17.7 17.7-17.7 9.8.1 17.7 8 17.7 17.7z"/>
  <path fill="#FFC50B" d="M417.3 188.1c-3.1-3.1.3-11.7 3.4-14.8 3.1-3.1 10.6-6.1 13.7-2.9 3.2 3-14 20.8-17.1 17.7zm-321.4-3.6c0 9.8-7.9 17.7-17.7 17.7-9.8 0-17.7-7.9-17.7-17.7 0-9.8 7.9-17.7 17.7-17.7 9.8.1 17.7 8 17.7 17.7z"/>
  <path fill="#F6E568" d="M63.9 188.1c-3.1-3.1.3-11.7 3.4-14.8 3.1-3.1 10.6-6.1 13.7-2.9 3.2 3-14 20.8-17.1 17.7z" opacity=".4"/>
  <path fill="#A8213B" d="M253.9 228.1 223 282.8l30.9 54.6 30.8-54.6z" style="fill:#2133a8;fill-opacity:1"/>
  <path fill="#951D38" d="m223 282.8 30.9 54.6 30.8-54.6z" style="fill:#1d5f95;fill-opacity:1"/>
  <path fill="#C0355A" d="M253.9 228.1 223 282.8l30.9 54.6z" style="fill:#35a7c0;fill-opacity:1"/>
  <path fill="#B72D4C" d="M253.9 282.8H223l30.9 54.6z" style="fill:#634888;fill-opacity:1"/>
</svg>